<svg width="40" height="40" viewBox="0 0 40 40" fill="none" xmlns="http://www.w3.org/2000/svg">
<rect width="40" height="40" rx="5" fill="#022B3A"/>
<path d="M26.0202 7.91316L23.749 10.1844L29.8494 16.2848L32.1206 14.0135C33.2938 12.8404 33.2938 10.9399 32.1206 9.76674L30.2717 7.91316C29.0986 6.74001 27.1981 6.74001 26.0249 7.91316H26.0202ZM22.6885 11.2449L11.75 22.1881C11.262 22.6761 10.9054 23.2814 10.7083 23.9431L9.04709 29.5883C8.92977 29.9872 9.0377 30.4142 9.32865 30.7051C9.61959 30.9961 10.0466 31.104 10.4408 30.9914L16.086 29.3302C16.7477 29.1331 17.353 28.7765 17.841 28.2884L28.7889 17.3453L22.6885 11.2449Z" fill="white"/>
</svg>
