<svg width="40" height="40" viewBox="0 0 40 40" fill="none" xmlns="http://www.w3.org/2000/svg">
<rect width="40" height="40" rx="5" fill="#022B3A"/>
<g clip-path="url(#clip0_92_6)">
<path d="M27.5 17.75C27.5 19.9016 26.8016 21.8891 25.625 23.5016L31.5594 29.4406C32.1453 30.0266 32.1453 30.9781 31.5594 31.5641C30.9734 32.15 30.0219 32.15 29.4359 31.5641L23.5016 25.625C21.8891 26.8062 19.9016 27.5 17.75 27.5C12.3641 27.5 8 23.1359 8 17.75C8 12.3641 12.3641 8 17.75 8C23.1359 8 27.5 12.3641 27.5 17.75ZM17.75 24.5C18.6364 24.5 19.5142 24.3254 20.3331 23.9862C21.1521 23.647 21.8962 23.1498 22.523 22.523C23.1498 21.8962 23.647 21.1521 23.9862 20.3331C24.3254 19.5142 24.5 18.6364 24.5 17.75C24.5 16.8636 24.3254 15.9858 23.9862 15.1669C23.647 14.3479 23.1498 13.6038 22.523 12.977C21.8962 12.3502 21.1521 11.853 20.3331 11.5138C19.5142 11.1746 18.6364 11 17.75 11C16.8636 11 15.9858 11.1746 15.1669 11.5138C14.3479 11.853 13.6038 12.3502 12.977 12.977C12.3502 13.6038 11.853 14.3479 11.5138 15.1669C11.1746 15.9858 11 16.8636 11 17.75C11 18.6364 11.1746 19.5142 11.5138 20.3331C11.853 21.1521 12.3502 21.8962 12.977 22.523C13.6038 23.1498 14.3479 23.647 15.1669 23.9862C15.9858 24.3254 16.8636 24.5 17.75 24.5Z" fill="white"/>
</g>
<defs>
<clipPath id="clip0_92_6">
<rect width="24" height="24" fill="white" transform="translate(8 8)"/>
</clipPath>
</defs>
</svg>
