<svg width="60" height="60" viewBox="0 0 60 60" fill="none" xmlns="http://www.w3.org/2000/svg">
<g clip-path="url(#clip0_75_555)">
<path d="M15.6295 28.6295C14.7924 29.4665 14.7924 30.8259 15.6295 31.6629L26.3438 42.3772C27.1808 43.2143 28.5402 43.2143 29.3773 42.3772C30.2143 41.5402 30.2143 40.1808 29.3773 39.3437L22.3125 32.2857H42.8572C44.0424 32.2857 45 31.3281 45 30.1429C45 28.9576 44.0424 28 42.8572 28H22.3192L29.3706 20.942C30.2076 20.1049 30.2076 18.7455 29.3706 17.9085C28.5335 17.0714 27.1741 17.0714 26.3371 17.9085L15.6228 28.6228L15.6295 28.6295Z" fill="white"/>
</g>
<circle cx="30" cy="30" r="28" stroke="white" stroke-width="4"/>
<defs>
<clipPath id="clip0_75_555">
<rect width="30" height="34.2857" fill="white" transform="translate(15 13)"/>
</clipPath>
</defs>
</svg>
