<svg width="78" height="78" viewBox="0 0 78 78" fill="none" xmlns="http://www.w3.org/2000/svg">
<circle cx="39" cy="39" r="39" fill="white"/>
<g clip-path="url(#clip0_75_320)">
<path d="M35.7526 21.5653C37.2712 26.1209 35.7208 30.7191 32.2908 31.8447C28.8607 32.9704 24.8467 30.1881 23.3281 25.6325C21.8096 21.0768 23.36 16.4787 26.79 15.353C30.22 14.2274 34.2341 17.0096 35.7526 21.5653ZM22.3618 32.7898C24.3688 36.2305 23.8803 40.2339 21.2786 41.7206C18.6769 43.2073 14.9389 41.6251 12.9425 38.1844C10.9461 34.7438 11.4133 30.7403 14.015 29.2536C16.6167 27.7669 20.3547 29.3492 22.3511 32.7898H22.3618ZM19.0485 54.3044C24.613 39.2994 34.4996 35.4871 38.8853 35.4871C43.2711 35.4871 53.1576 39.2994 58.7221 54.3044C59.1044 55.3345 59.2743 56.4389 59.2743 57.5433V57.7132C59.2743 60.453 57.0549 62.6724 54.3151 62.6724C53.0939 62.6724 51.8833 62.5237 50.7045 62.2264L41.3596 59.8902C39.7349 59.4866 38.0358 59.4866 36.411 59.8902L27.0661 62.2264C25.8873 62.5237 24.6768 62.6724 23.4555 62.6724C20.7158 62.6724 18.4963 60.453 18.4963 57.7132V57.5433C18.4963 56.4389 18.6663 55.3345 19.0485 54.3044ZM56.492 41.7206C53.8903 40.2339 53.4018 36.2305 55.4089 32.7898C57.4159 29.3492 61.1433 27.7669 63.745 29.2536C66.3467 30.7403 66.8352 34.7438 64.8282 38.1844C62.8211 41.6251 59.0938 43.2073 56.492 41.7206ZM44.6303 31.8447C41.2003 30.7191 39.6499 26.1209 41.1685 21.5653C42.687 17.0096 46.7011 14.2274 50.1311 15.353C53.5611 16.4787 55.1115 21.0768 53.593 25.6325C52.0744 30.1881 48.0604 32.9704 44.6303 31.8447Z" fill="#1F7A8C"/>
</g>
<defs>
<clipPath id="clip0_75_320">
<rect width="54.3706" height="54.3706" fill="white" transform="translate(11.7001 11.7)"/>
</clipPath>
</defs>
</svg>
