<svg width="106" height="119" viewBox="0 0 106 119" fill="none" xmlns="http://www.w3.org/2000/svg">
<rect x="21" y="26" width="65" height="54" fill="white"/>
<path d="M49.8422 0.595806C50.7051 0.20545 51.6297 0 52.5953 0C53.5609 0 54.4854 0.20545 55.3483 0.595806L94.0346 17.0113C98.5545 18.922 101.924 23.3802 101.903 28.763C101.801 49.1437 93.4182 86.4329 58.0192 103.383C54.5881 105.026 50.6024 105.026 47.1714 103.383C11.7723 86.4329 3.38992 49.1437 3.2872 28.763C3.26665 23.3802 6.63604 18.922 11.1559 17.0113L49.8422 0.595806ZM72.1336 58.7999C71.1474 59.0464 70.0996 59.1697 69.0313 59.1697C61.7789 59.1697 55.8825 53.2733 55.8825 46.0209V32.872H46.8016C44.3156 32.872 42.0351 34.2691 40.9257 36.5085L39.4465 39.4465H26.2976C24.4897 39.4465 23.0104 40.9257 23.0104 42.7337V49.3081C23.0104 58.389 30.3655 65.7441 39.4465 65.7441H49.3081V76.1604C49.3081 77.6602 50.5202 78.8929 52.0406 78.8929C52.4104 78.8929 52.7802 78.8107 53.1089 78.6669L73.3868 69.9764C74.7428 69.4011 75.6057 68.0657 75.6057 66.607C75.6057 66.0317 75.4824 65.477 75.2154 64.9634L72.1336 58.7999ZM72.3185 32.872H64.1005H62.4569V39.4465V46.0209C62.4569 49.6573 65.3948 52.5953 69.0313 52.5953C72.6678 52.5953 75.6057 49.6573 75.6057 46.0209V36.1592C75.6057 34.3513 74.1265 32.872 72.3185 32.872ZM46.0209 42.7337C46.0209 41.8618 46.3672 41.0257 46.9837 40.4093C47.6001 39.7928 48.4362 39.4465 49.3081 39.4465C50.1799 39.4465 51.016 39.7928 51.6325 40.4093C52.2489 41.0257 52.5953 41.8618 52.5953 42.7337C52.5953 43.6055 52.2489 44.4416 51.6325 45.0581C51.016 45.6745 50.1799 46.0209 49.3081 46.0209C48.4362 46.0209 47.6001 45.6745 46.9837 45.0581C46.3672 44.4416 46.0209 43.6055 46.0209 42.7337Z" fill="#1F7A8C"/>
<path d="M45.5171 111.176C49.424 115.091 55.7666 115.091 59.6735 111.176L65.357 105.481C71.6469 99.1783 67.183 88.4169 58.2788 88.4169H46.9117C38.0075 88.4169 33.5437 99.1783 39.8336 105.481L45.5171 111.176Z" fill="#1F7A8C"/>
<rect x="13" y="85" width="79.6037" height="22.7439" rx="11.372" fill="#1F7A8C"/>
<path d="M27.457 94.89C27.7083 94.5607 28.0507 94.2833 28.484 94.058C28.9173 93.8327 29.407 93.72 29.953 93.72C30.577 93.72 31.1447 93.876 31.656 94.188C32.176 94.4913 32.5833 94.9203 32.878 95.475C33.1727 96.0297 33.32 96.6667 33.32 97.386C33.32 98.1053 33.1727 98.751 32.878 99.323C32.5833 99.8863 32.176 100.328 31.656 100.649C31.1447 100.961 30.577 101.117 29.953 101.117C29.407 101.117 28.9217 101.009 28.497 100.792C28.0723 100.567 27.7257 100.289 27.457 99.96V104.406H25.975V93.837H27.457V94.89ZM31.812 97.386C31.812 96.892 31.708 96.4673 31.5 96.112C31.3007 95.748 31.032 95.475 30.694 95.293C30.3647 95.1023 30.0093 95.007 29.628 95.007C29.2553 95.007 28.9 95.1023 28.562 95.293C28.2327 95.4837 27.964 95.761 27.756 96.125C27.5567 96.489 27.457 96.918 27.457 97.412C27.457 97.906 27.5567 98.3393 27.756 98.712C27.964 99.076 28.2327 99.3533 28.562 99.544C28.9 99.7347 29.2553 99.83 29.628 99.83C30.0093 99.83 30.3647 99.7347 30.694 99.544C31.032 99.3447 31.3007 99.0587 31.5 98.686C31.708 98.3133 31.812 97.88 31.812 97.386ZM41.3505 97.243C41.3505 97.5117 41.3332 97.7543 41.2985 97.971H35.8255C35.8689 98.543 36.0812 99.0023 36.4625 99.349C36.8439 99.6957 37.3119 99.869 37.8665 99.869C38.6639 99.869 39.2272 99.5353 39.5565 98.868H41.1555C40.9389 99.5267 40.5445 100.068 39.9725 100.493C39.4092 100.909 38.7072 101.117 37.8665 101.117C37.1819 101.117 36.5665 100.965 36.0205 100.662C35.4832 100.35 35.0585 99.9167 34.7465 99.362C34.4432 98.7987 34.2915 98.1487 34.2915 97.412C34.2915 96.6753 34.4389 96.0297 34.7335 95.475C35.0369 94.9117 35.4572 94.4783 35.9945 94.175C36.5405 93.8717 37.1645 93.72 37.8665 93.72C38.5425 93.72 39.1449 93.8673 39.6735 94.162C40.2022 94.4567 40.6139 94.8727 40.9085 95.41C41.2032 95.9387 41.3505 96.5497 41.3505 97.243ZM39.8035 96.775C39.7949 96.229 39.5999 95.7913 39.2185 95.462C38.8372 95.1327 38.3649 94.968 37.8015 94.968C37.2902 94.968 36.8525 95.1327 36.4885 95.462C36.1245 95.7827 35.9079 96.2203 35.8385 96.775H39.8035ZM44.538 95.046V99.011C44.538 99.2797 44.5987 99.4747 44.72 99.596C44.85 99.7087 45.0667 99.765 45.37 99.765H46.28V101H45.11C44.4427 101 43.9313 100.844 43.576 100.532C43.2207 100.22 43.043 99.713 43.043 99.011V95.046H42.198V93.837H43.043V92.056H44.538V93.837H46.28V95.046H44.538ZM50.2459 101.117C49.6826 101.117 49.1756 101.017 48.7249 100.818C48.2829 100.61 47.9319 100.333 47.6719 99.986C47.4119 99.6307 47.2732 99.2363 47.2559 98.803H48.7899C48.8159 99.1063 48.9589 99.362 49.2189 99.57C49.4876 99.7693 49.8212 99.869 50.2199 99.869C50.6359 99.869 50.9566 99.791 51.1819 99.635C51.4159 99.4703 51.5329 99.2623 51.5329 99.011C51.5329 98.7423 51.4029 98.543 51.1429 98.413C50.8916 98.283 50.4886 98.14 49.9339 97.984C49.3966 97.8367 48.9589 97.6937 48.6209 97.555C48.2829 97.4163 47.9882 97.204 47.7369 96.918C47.4942 96.632 47.3729 96.255 47.3729 95.787C47.3729 95.4057 47.4856 95.059 47.7109 94.747C47.9362 94.4263 48.2569 94.175 48.6729 93.993C49.0976 93.811 49.5829 93.72 50.1289 93.72C50.9436 93.72 51.5979 93.928 52.0919 94.344C52.5946 94.7513 52.8632 95.3103 52.8979 96.021H51.4159C51.3899 95.7003 51.2599 95.4447 51.0259 95.254C50.7919 95.0633 50.4756 94.968 50.0769 94.968C49.6869 94.968 49.3879 95.0417 49.1799 95.189C48.9719 95.3363 48.8679 95.5313 48.8679 95.774C48.8679 95.9647 48.9372 96.125 49.0759 96.255C49.2146 96.385 49.3836 96.489 49.5829 96.567C49.7822 96.6363 50.0769 96.7273 50.4669 96.84C50.9869 96.9787 51.4116 97.1217 51.7409 97.269C52.0789 97.4077 52.3692 97.6157 52.6119 97.893C52.8546 98.1703 52.9802 98.5387 52.9889 98.998C52.9889 99.4053 52.8762 99.7693 52.6509 100.09C52.4256 100.411 52.1049 100.662 51.6889 100.844C51.2816 101.026 50.8006 101.117 50.2459 101.117ZM60.0372 99.154H56.2542L55.6042 101H54.0572L57.2942 91.952H59.0102L62.2472 101H60.6872L60.0372 99.154ZM59.6212 97.945L58.1522 93.746L56.6702 97.945H59.6212ZM69.9727 94.656C69.9727 95.1153 69.8644 95.5487 69.6477 95.956C69.431 96.3633 69.0844 96.697 68.6077 96.957C68.131 97.2083 67.52 97.334 66.7747 97.334H65.1367V101H63.6547V91.965H66.7747C67.468 91.965 68.053 92.0863 68.5297 92.329C69.015 92.563 69.3747 92.8837 69.6087 93.291C69.8514 93.6983 69.9727 94.1533 69.9727 94.656ZM66.7747 96.125C67.338 96.125 67.7584 95.9993 68.0357 95.748C68.313 95.488 68.4517 95.124 68.4517 94.656C68.4517 93.668 67.8927 93.174 66.7747 93.174H65.1367V96.125H66.7747ZM77.7041 94.656C77.7041 95.1153 77.5958 95.5487 77.3791 95.956C77.1625 96.3633 76.8158 96.697 76.3391 96.957C75.8625 97.2083 75.2515 97.334 74.5061 97.334H72.8681V101H71.3861V91.965H74.5061C75.1995 91.965 75.7845 92.0863 76.2611 92.329C76.7465 92.563 77.1061 92.8837 77.3401 93.291C77.5828 93.6983 77.7041 94.1533 77.7041 94.656ZM74.5061 96.125C75.0695 96.125 75.4898 95.9993 75.7671 95.748C76.0445 95.488 76.1831 95.124 76.1831 94.656C76.1831 93.668 75.6241 93.174 74.5061 93.174H72.8681V96.125H74.5061Z" fill="#E1E5F2"/>
</svg>
