<svg width="40" height="46" viewBox="0 0 40 46" fill="none" xmlns="http://www.w3.org/2000/svg">
<path d="M0 8.57143C0 6.99107 1.27679 5.71429 2.85714 5.71429H37.1429C38.7232 5.71429 40 6.99107 40 8.57143C40 10.1518 38.7232 11.4286 37.1429 11.4286H2.85714C1.27679 11.4286 0 10.1518 0 8.57143ZM0 22.8571C0 21.2768 1.27679 20 2.85714 20H37.1429C38.7232 20 40 21.2768 40 22.8571C40 24.4375 38.7232 25.7143 37.1429 25.7143H2.85714C1.27679 25.7143 0 24.4375 0 22.8571ZM40 37.1429C40 38.7232 38.7232 40 37.1429 40H2.85714C1.27679 40 0 38.7232 0 37.1429C0 35.5625 1.27679 34.2857 2.85714 34.2857H37.1429C38.7232 34.2857 40 35.5625 40 37.1429Z" fill="white"/>
</svg>
