<svg width="60" height="60" viewBox="0 0 60 60" fill="none" xmlns="http://www.w3.org/2000/svg">
<circle cx="30" cy="30" r="30" fill="#022B3A"/>
<g clip-path="url(#clip0_75_121)">
<path d="M27.5021 16.5887C28.6702 20.093 27.4776 23.6301 24.8391 24.4959C22.2006 25.3618 19.1129 23.2216 17.9447 19.7173C16.7766 16.2129 17.9692 12.6759 20.6077 11.81C23.2462 10.9441 26.3339 13.0843 27.5021 16.5887ZM17.2014 25.2229C18.7453 27.8696 18.3695 30.9492 16.3682 32.0928C14.3669 33.2364 11.4915 32.0193 9.95579 29.3726C8.42008 26.726 8.7795 23.6464 10.7808 22.5028C12.7821 21.3592 15.6575 22.5763 17.1932 25.2229H17.2014ZM14.6528 41.7726C18.9331 30.2303 26.5382 27.2978 29.9118 27.2978C33.2855 27.2978 40.8905 30.2303 45.1709 41.7726C45.4649 42.565 45.5956 43.4145 45.5956 44.2641V44.3948C45.5956 46.5023 43.8884 48.2095 41.7809 48.2095C40.8415 48.2095 39.9103 48.0952 39.0035 47.8665L31.8151 46.0694C30.5653 45.7589 29.2583 45.7589 28.0085 46.0694L20.8201 47.8665C19.9134 48.0952 18.9822 48.2095 18.0428 48.2095C15.9352 48.2095 14.228 46.5023 14.228 44.3948V44.2641C14.228 43.4145 14.3587 42.565 14.6528 41.7726ZM43.4555 32.0928C41.4541 30.9492 41.0784 27.8696 42.6223 25.2229C44.1661 22.5763 47.0333 21.3592 49.0346 22.5028C51.036 23.6464 51.4117 26.726 49.8679 29.3726C48.324 32.0193 45.4568 33.2364 43.4555 32.0928ZM34.3311 24.4959C31.6926 23.6301 30.5 20.093 31.6681 16.5887C32.8362 13.0843 35.924 10.9441 38.5624 11.81C41.2009 12.6759 42.3935 16.2129 41.2254 19.7173C40.0573 23.2216 36.9695 25.3618 34.3311 24.4959Z" fill="#BFDBF7"/>
</g>
<defs>
<clipPath id="clip0_75_121">
<rect width="41.8235" height="41.8235" fill="white" transform="translate(9 9)"/>
</clipPath>
</defs>
</svg>
