<svg width="200" height="200" viewBox="0 0 200 200" fill="none" xmlns="http://www.w3.org/2000/svg">
<circle cx="100" cy="100" r="100" fill="white"/>
<g clip-path="url(#clip0_104_7)">
<path d="M100 90.3663C108.549 90.3663 116.748 86.9702 122.793 80.9251C128.838 74.88 132.234 66.681 132.234 58.1319C132.234 49.5828 128.838 41.3838 122.793 35.3387C116.748 29.2936 108.549 25.8975 100 25.8975C91.4509 25.8975 83.2519 29.2936 77.2068 35.3387C71.1617 41.3838 67.7655 49.5828 67.7655 58.1319C67.7655 66.681 71.1617 74.88 77.2068 80.9251C83.2519 86.9702 91.4509 90.3663 100 90.3663ZM88.4913 102.454C63.6859 102.454 43.5897 122.55 43.5897 147.356C43.5897 151.486 46.9391 154.835 51.0691 154.835H148.931C153.061 154.835 156.41 151.486 156.41 147.356C156.41 122.55 136.314 102.454 111.509 102.454H88.4913Z" fill="#1F7A8C"/>
</g>
<path d="M42.008 159.88V166.968C42.008 167.811 42.2267 168.445 42.664 168.872C43.112 169.299 43.7307 169.512 44.52 169.512C45.32 169.512 45.9387 169.299 46.376 168.872C46.824 168.445 47.048 167.811 47.048 166.968V159.88H48.872V166.936C48.872 167.843 48.6747 168.611 48.28 169.24C47.8853 169.869 47.3573 170.339 46.696 170.648C46.0347 170.957 45.304 171.112 44.504 171.112C43.704 171.112 42.9733 170.957 42.312 170.648C41.6613 170.339 41.144 169.869 40.76 169.24C40.376 168.611 40.184 167.843 40.184 166.936V159.88H42.008ZM59.0229 163.192C59.0229 163.757 58.8895 164.291 58.6229 164.792C58.3562 165.293 57.9295 165.704 57.3429 166.024C56.7562 166.333 56.0042 166.488 55.0869 166.488H53.0709V171H51.2469V159.88H55.0869C55.9402 159.88 56.6602 160.029 57.2469 160.328C57.8442 160.616 58.2869 161.011 58.5749 161.512C58.8735 162.013 59.0229 162.573 59.0229 163.192ZM55.0869 165C55.7802 165 56.2975 164.845 56.6389 164.536C56.9802 164.216 57.1509 163.768 57.1509 163.192C57.1509 161.976 56.4629 161.368 55.0869 161.368H53.0709V165H55.0869ZM62.5865 169.528H66.3465V171H60.7625V159.88H62.5865V169.528ZM72.9439 171.112C71.9092 171.112 70.9545 170.872 70.0799 170.392C69.2159 169.901 68.5279 169.224 68.0159 168.36C67.5145 167.485 67.2639 166.504 67.2639 165.416C67.2639 164.328 67.5145 163.352 68.0159 162.488C68.5279 161.624 69.2159 160.952 70.0799 160.472C70.9545 159.981 71.9092 159.736 72.9439 159.736C73.9892 159.736 74.9439 159.981 75.8079 160.472C76.6825 160.952 77.3705 161.624 77.8719 162.488C78.3732 163.352 78.6239 164.328 78.6239 165.416C78.6239 166.504 78.3732 167.485 77.8719 168.36C77.3705 169.224 76.6825 169.901 75.8079 170.392C74.9439 170.872 73.9892 171.112 72.9439 171.112ZM72.9439 169.528C73.6799 169.528 74.3359 169.363 74.9119 169.032C75.4879 168.691 75.9359 168.211 76.2559 167.592C76.5865 166.963 76.7519 166.237 76.7519 165.416C76.7519 164.595 76.5865 163.875 76.2559 163.256C75.9359 162.637 75.4879 162.163 74.9119 161.832C74.3359 161.501 73.6799 161.336 72.9439 161.336C72.2079 161.336 71.5519 161.501 70.9759 161.832C70.3999 162.163 69.9465 162.637 69.6159 163.256C69.2959 163.875 69.1359 164.595 69.1359 165.416C69.1359 166.237 69.2959 166.963 69.6159 167.592C69.9465 168.211 70.3999 168.691 70.9759 169.032C71.5519 169.363 72.2079 169.528 72.9439 169.528ZM87.1228 168.728H82.4668L81.6668 171H79.7628L83.7468 159.864H85.8588L89.8428 171H87.9228L87.1228 168.728ZM86.6108 167.24L84.8028 162.072L82.9788 167.24H86.6108ZM95.207 159.88C96.391 159.88 97.4257 160.109 98.311 160.568C99.207 161.016 99.895 161.667 100.375 162.52C100.866 163.363 101.111 164.349 101.111 165.48C101.111 166.611 100.866 167.592 100.375 168.424C99.895 169.256 99.207 169.896 98.311 170.344C97.4257 170.781 96.391 171 95.207 171H91.575V159.88H95.207ZM95.207 169.512C96.5083 169.512 97.5057 169.16 98.199 168.456C98.8923 167.752 99.239 166.76 99.239 165.48C99.239 164.189 98.8923 163.181 98.199 162.456C97.5057 161.731 96.5083 161.368 95.207 161.368H93.399V169.512H95.207ZM114.851 163.192C114.851 163.757 114.718 164.291 114.451 164.792C114.184 165.293 113.758 165.704 113.171 166.024C112.584 166.333 111.832 166.488 110.915 166.488H108.899V171H107.075V159.88H110.915C111.768 159.88 112.488 160.029 113.075 160.328C113.672 160.616 114.115 161.011 114.403 161.512C114.702 162.013 114.851 162.573 114.851 163.192ZM110.915 165C111.608 165 112.126 164.845 112.467 164.536C112.808 164.216 112.979 163.768 112.979 163.192C112.979 161.976 112.291 161.368 110.915 161.368H108.899V165H110.915ZM125.471 159.88V171H123.647V166.136H118.415V171H116.591V159.88H118.415V164.648H123.647V159.88H125.471ZM132.944 171.112C131.909 171.112 130.955 170.872 130.08 170.392C129.216 169.901 128.528 169.224 128.016 168.36C127.515 167.485 127.264 166.504 127.264 165.416C127.264 164.328 127.515 163.352 128.016 162.488C128.528 161.624 129.216 160.952 130.08 160.472C130.955 159.981 131.909 159.736 132.944 159.736C133.989 159.736 134.944 159.981 135.808 160.472C136.683 160.952 137.371 161.624 137.872 162.488C138.373 163.352 138.624 164.328 138.624 165.416C138.624 166.504 138.373 167.485 137.872 168.36C137.371 169.224 136.683 169.901 135.808 170.392C134.944 170.872 133.989 171.112 132.944 171.112ZM132.944 169.528C133.68 169.528 134.336 169.363 134.912 169.032C135.488 168.691 135.936 168.211 136.256 167.592C136.587 166.963 136.752 166.237 136.752 165.416C136.752 164.595 136.587 163.875 136.256 163.256C135.936 162.637 135.488 162.163 134.912 161.832C134.336 161.501 133.68 161.336 132.944 161.336C132.208 161.336 131.552 161.501 130.976 161.832C130.4 162.163 129.947 162.637 129.616 163.256C129.296 163.875 129.136 164.595 129.136 165.416C129.136 166.237 129.296 166.963 129.616 167.592C129.947 168.211 130.4 168.691 130.976 169.032C131.552 169.363 132.208 169.528 132.944 169.528ZM147.603 159.88V161.368H144.643V171H142.819V161.368H139.843V159.88H147.603ZM154.522 171.112C153.487 171.112 152.533 170.872 151.658 170.392C150.794 169.901 150.106 169.224 149.594 168.36C149.093 167.485 148.842 166.504 148.842 165.416C148.842 164.328 149.093 163.352 149.594 162.488C150.106 161.624 150.794 160.952 151.658 160.472C152.533 159.981 153.487 159.736 154.522 159.736C155.567 159.736 156.522 159.981 157.386 160.472C158.261 160.952 158.949 161.624 159.45 162.488C159.951 163.352 160.202 164.328 160.202 165.416C160.202 166.504 159.951 167.485 159.45 168.36C158.949 169.224 158.261 169.901 157.386 170.392C156.522 170.872 155.567 171.112 154.522 171.112ZM154.522 169.528C155.258 169.528 155.914 169.363 156.49 169.032C157.066 168.691 157.514 168.211 157.834 167.592C158.165 166.963 158.33 166.237 158.33 165.416C158.33 164.595 158.165 163.875 157.834 163.256C157.514 162.637 157.066 162.163 156.49 161.832C155.914 161.501 155.258 161.336 154.522 161.336C153.786 161.336 153.13 161.501 152.554 161.832C151.978 162.163 151.525 162.637 151.194 163.256C150.874 163.875 150.714 164.595 150.714 165.416C150.714 166.237 150.874 166.963 151.194 167.592C151.525 168.211 151.978 168.691 152.554 169.032C153.13 169.363 153.786 169.528 154.522 169.528Z" fill="#022B3A"/>
<defs>
<clipPath id="clip0_104_7">
<rect width="112.821" height="128.938" fill="white" transform="translate(43.5897 25.8975)"/>
</clipPath>
</defs>
</svg>
