<svg width="78" height="78" viewBox="0 0 78 78" fill="none" xmlns="http://www.w3.org/2000/svg">
<circle cx="39" cy="39" r="39" fill="white"/>
<path d="M18.6484 45.3359L36.2949 61.8105C37.0273 62.4941 37.9941 62.875 39 62.875C40.0059 62.875 40.9727 62.4941 41.7051 61.8105L59.3516 45.3359C62.3203 42.5722 64 38.6953 64 34.6426V34.0761C64 27.25 59.0684 21.4297 52.3398 20.3066C47.8867 19.5644 43.3555 21.0195 40.1719 24.2031L39 25.375L37.8281 24.2031C34.6445 21.0195 30.1133 19.5644 25.6602 20.3066C18.9316 21.4297 14 27.25 14 34.0761V34.6426C14 38.6953 15.6797 42.5722 18.6484 45.3359Z" fill="#1F7A8C"/>
</svg>
