<svg width="60" height="60" viewBox="0 0 60 60" fill="none" xmlns="http://www.w3.org/2000/svg">
<circle cx="30" cy="30" r="30" fill="#022B3A"/>
<g clip-path="url(#clip0_75_231)">
<path d="M30 30.1099C32.5647 30.1099 35.0244 29.091 36.8379 27.2775C38.6515 25.464 39.6703 23.0043 39.6703 20.4396C39.6703 17.8748 38.6515 15.4151 36.8379 13.6016C35.0244 11.7881 32.5647 10.7692 30 10.7692C27.4352 10.7692 24.9756 11.7881 23.162 13.6016C21.3485 15.4151 20.3297 17.8748 20.3297 20.4396C20.3297 23.0043 21.3485 25.464 23.162 27.2775C24.9756 29.091 27.4352 30.1099 30 30.1099ZM26.5474 33.7363C19.1058 33.7363 13.0769 39.7651 13.0769 47.2067C13.0769 48.4457 14.0817 49.4505 15.3207 49.4505H44.6792C45.9182 49.4505 46.9231 48.4457 46.9231 47.2067C46.9231 39.7651 40.8942 33.7363 33.4526 33.7363H26.5474Z" fill="#BFDBF7"/>
</g>
<defs>
<clipPath id="clip0_75_231">
<rect width="33.8462" height="38.6813" fill="white" transform="translate(13.0769 10.7692)"/>
</clipPath>
</defs>
</svg>
