<svg width="40" height="40" viewBox="0 0 40 40" fill="none" xmlns="http://www.w3.org/2000/svg">
<rect width="40" height="40" rx="5" fill="#022B3A"/>
<path d="M16.0357 10.7888L15.7143 11.4261H11.4286C10.6384 11.4261 10 12.0633 10 12.8521C10 13.6409 10.6384 14.2782 11.4286 14.2782H28.5714C29.3616 14.2782 30 13.6409 30 12.8521C30 12.0633 29.3616 11.4261 28.5714 11.4261H24.2857L23.9643 10.7888C23.7232 10.303 23.2277 10 22.6875 10H17.3125C16.7723 10 16.2768 10.303 16.0357 10.7888ZM28.5714 15.7042H11.4286L12.375 30.8115C12.4464 31.939 13.3839 32.8169 14.5134 32.8169H25.4866C26.6161 32.8169 27.5536 31.939 27.625 30.8115L28.5714 15.7042Z" fill="white"/>
</svg>
