<svg width="78" height="78" viewBox="0 0 78 78" fill="none" xmlns="http://www.w3.org/2000/svg">
<circle cx="39" cy="39" r="39" fill="white"/>
<g clip-path="url(#clip0_75_326)">
<path d="M39 39.1429C42.3342 39.1429 45.5317 37.8184 47.8893 35.4608C50.2469 33.1032 51.5714 29.9056 51.5714 26.5714C51.5714 23.2373 50.2469 20.0397 47.8893 17.6821C45.5317 15.3245 42.3342 14 39 14C35.6658 14 32.4683 15.3245 30.1107 17.6821C27.7531 20.0397 26.4286 23.2373 26.4286 26.5714C26.4286 29.9056 27.7531 33.1032 30.1107 35.4608C32.4683 37.8184 35.6658 39.1429 39 39.1429ZM34.5116 43.8571C24.8375 43.8571 17 51.6946 17 61.3687C17 62.9795 18.3063 64.2857 19.917 64.2857H58.083C59.6937 64.2857 61 62.9795 61 61.3687C61 51.6946 53.1625 43.8571 43.4884 43.8571H34.5116Z" fill="#1F7A8C"/>
</g>
<defs>
<clipPath id="clip0_75_326">
<rect width="44" height="50.2857" fill="white" transform="translate(17 14)"/>
</clipPath>
</defs>
</svg>
