<svg width="40" height="54" viewBox="0 0 40 54" fill="none" xmlns="http://www.w3.org/2000/svg">
<path d="M35.6874 15.6875C36.9895 14.3854 36.9895 12.2708 35.6874 10.9687C34.3853 9.66667 32.2708 9.66667 30.9687 10.9687L19.9999 21.9479L9.02075 10.9792C7.71867 9.67708 5.60409 9.67708 4.302 10.9792C2.99992 12.2812 2.99992 14.3958 4.302 15.6979L15.2812 26.6667L4.31242 37.6458C3.01034 38.9479 3.01034 41.0625 4.31242 42.3646C5.6145 43.6667 7.72908 43.6667 9.03117 42.3646L19.9999 31.3854L30.9791 42.3542C32.2812 43.6562 34.3958 43.6562 35.6978 42.3542C36.9999 41.0521 36.9999 38.9375 35.6978 37.6354L24.7187 26.6667L35.6874 15.6875Z" fill="white"/>
</svg>
